<svg width="242" height="253" viewBox="0 0 242 253" fill="none" xmlns="http://www.w3.org/2000/svg">
<path d="M123.999 250.826C120.1 250.884 116.209 250.458 112.417 249.559L111.669 249.369L110.973 249.04C85.7982 237.133 64.4496 221.188 47.5203 201.65C33.5046 185.38 22.4679 166.818 14.9065 146.799C5.86378 122.831 1.2555 97.452 1.30169 71.8724C1.30223 71.3355 1.30344 70.9209 1.29812 70.6354C1.06671 58.2056 7.84465 47.1724 18.5657 42.5268C26.771 38.9713 101.28 7.12925 106.663 4.82857C116.785 -0.416167 127.762 3.60815 129.52 4.31483C133.461 5.82444 203.387 32.6178 218.516 39.4033C234.108 46.3967 238.476 59.3902 238.598 65.9651C239.152 95.7319 234.454 123.646 224.634 148.933C216.704 169.4 205.278 188.37 190.853 205.016C163.022 237.141 134.804 248.863 134.532 248.967C131.156 250.184 127.592 250.813 123.999 250.826ZM117.009 234.582C119.484 235.083 125.173 235.799 128.846 234.398C133.513 232.62 157.079 219.993 178.852 194.86C208.935 160.136 223.722 116.903 222.804 66.3622C222.73 65.3393 221.858 58.0497 211.987 53.6226C197.151 46.9683 124.469 19.127 123.737 18.8464L123.536 18.7665C122.013 18.1679 117.177 16.9366 113.892 18.7145L113.234 19.0326C112.436 19.3736 33.3439 53.1729 24.9097 56.8275C19.0096 59.384 17.0042 65.4881 17.0946 70.3482C17.1013 70.7033 17.1016 71.2201 17.1009 71.8881C17.0654 106.482 26.7465 191.429 117.009 234.582Z" fill="#3F3D56"/>
<path d="M110.099 11.8663C110.099 11.8663 30.2878 45.9722 21.7375 49.6771C13.1873 53.382 9.03769 61.976 9.19623 70.4917C9.35477 79.0074 4.9613 190.243 114.383 241.997C114.383 241.997 124.273 244.509 131.689 241.683C139.105 238.856 233.038 191.715 230.7 66.1087C230.7 66.1087 230.462 53.3351 215.251 46.5129C200.041 39.6907 126.591 11.5663 126.591 11.5663C126.591 11.5663 117.565 7.82612 110.099 11.8663Z" fill="#7375F6"/>
<path opacity="0.1" d="M119.191 37.2567L122.433 211.398C122.433 211.398 40.5775 174.274 39.4062 72.7819L119.191 37.2567Z" fill="black"/>
<path d="M122.579 162.395L96.1214 130.021L110.937 118.194L123.465 133.522L164.004 89.6374L178.07 102.332L122.579 162.395Z" fill="white"/>
</svg>
