<svg width="437" height="370" viewBox="0 0 437 370" fill="none" xmlns="http://www.w3.org/2000/svg">
<path d="M223.821 366.777C216.783 366.862 209.76 366.24 202.916 364.924L201.566 364.647L200.31 364.166C154.868 346.754 116.333 323.439 85.7755 294.868C60.4767 271.076 40.5552 243.934 26.9067 214.661C10.5843 179.614 2.2662 142.502 2.34958 105.097C2.35057 104.312 2.35274 103.706 2.34314 103.289C1.92544 85.1127 14.1598 68.9792 33.5116 62.186C48.3224 56.9869 182.813 10.4249 192.53 7.06071C210.8 -0.608561 230.614 5.2761 233.786 6.30947C240.901 8.51694 367.118 47.6962 394.428 57.6186C422.572 67.8449 430.455 86.8449 430.676 96.4593C431.677 139.987 423.196 180.805 405.47 217.781C391.156 247.71 370.532 275.449 344.495 299.79C294.26 346.766 243.326 363.907 242.834 364.059C236.74 365.838 230.307 366.758 223.821 366.777ZM211.204 343.024C215.671 343.757 225.941 344.804 232.571 342.756C240.995 340.154 283.531 321.691 322.832 284.94C377.133 234.163 403.824 170.944 402.167 97.0399C402.034 95.5441 400.46 84.8848 382.643 78.4111C355.863 68.6807 224.671 27.969 223.349 27.5587L222.986 27.4419C220.236 26.5665 211.507 24.766 205.579 27.3658L204.39 27.8309C202.95 28.3296 60.1867 77.7535 44.9626 83.0976C34.3129 86.8359 30.693 95.7618 30.8563 102.869C30.8682 103.388 30.8688 104.144 30.8675 105.12C30.8035 155.706 48.2782 279.922 211.204 343.024Z" fill="#3F3D56"/>
<path d="M198.731 17.3518C198.731 17.3518 54.6704 67.2241 39.237 72.6417C23.8036 78.0593 16.3135 90.6262 16.5996 103.079C16.8858 115.531 8.95547 278.189 206.465 353.867C206.465 353.867 224.317 357.54 237.703 353.407C251.088 349.274 420.641 280.341 416.42 96.6693C416.42 96.6693 415.991 77.9908 388.535 68.0149C361.079 58.0389 228.5 16.9132 228.5 16.9132C228.5 16.9132 212.209 11.444 198.731 17.3518Z" fill="#7375F6"/>
<path opacity="0.1" d="M215.142 54.4797L220.994 309.123C220.994 309.123 73.2434 254.837 71.1293 106.427L215.142 54.4797Z" fill="black"/>
<path d="M221.258 237.467L173.502 190.127L200.244 172.832L222.857 195.247L296.031 131.075L321.421 149.637L221.258 237.467Z" fill="white"/>
</svg>
